<?xml version="1.0" encoding="UTF-8"?>
<svg version="1.1" xmlns="http://www.w3.org/2000/svg" width="1116" height="1120">
<path d="M0 0 C6.08063174 4.34330838 11.6778212 9.13478291 17.29711914 14.04760742 C20.98168576 17.26424913 24.69614983 20.42394179 28.5 23.5 C33.53428272 27.57821716 38.42510708 31.80617058 43.31030273 36.06030273 C47.89116089 40.04716333 52.50750287 43.9881908 57.15136719 47.90136719 C61.16384184 51.28481948 65.14710388 54.70100184 69.125 58.125 C73.18620876 61.61823856 77.27518971 65.06448707 81.4375 68.4375 C86.48568141 72.53683087 91.39659343 76.78018469 96.29907227 81.05126953 C100.46102192 84.67491284 104.65279893 88.25929866 108.875 91.8125 C113.99430921 96.12288198 119.03009535 100.51809633 124 105 C123.46568096 109.1123483 121.30189725 111.12656137 118.5 114.0625 C115.07260187 117.71598141 111.77512891 121.41234039 108.625 125.3125 C105.2100659 129.53765573 101.72867056 133.6933767 98.1875 137.8125 C97.68323486 138.39918457 97.17896973 138.98586914 96.65942383 139.59033203 C94.58728444 141.99869793 92.51283065 144.40506514 90.43847656 146.81152344 C85.41838502 152.63835913 80.40626351 158.46234648 75.5625 164.4375 C71.46020051 169.48933717 67.21298022 174.4030598 62.93994141 179.31005859 C58.95296241 183.89096638 55.01188319 188.50741507 51.09863281 193.15136719 C47.71518052 197.16384184 44.29899816 201.14710388 40.875 205.125 C36.64872783 210.03842725 32.51801503 215.01655796 28.4453125 220.05859375 C26.51556902 222.37983471 24.55594874 224.65152781 22.5546875 226.91015625 C21.95712646 227.58699463 21.35956543 228.26383301 20.74389648 228.96118164 C19.5570888 230.30069117 18.36405429 231.63471432 17.16430664 232.96264648 C16.62410889 233.57309814 16.08391113 234.1835498 15.52734375 234.8125 C15.03999756 235.35519531 14.55265137 235.89789062 14.05053711 236.45703125 C12.71860356 238.10219071 12.71860356 238.10219071 13 241 C14.20967051 242.47265995 14.20967051 242.47265995 15.89453125 243.8203125 C16.51457031 244.35076172 17.13460937 244.88121094 17.7734375 245.42773438 C18.44632813 245.98783203 19.11921875 246.54792969 19.8125 247.125 C20.49957031 247.70830078 21.18664062 248.29160156 21.89453125 248.89257812 C26.59265384 252.8675755 31.35554877 256.76220026 36.13671875 260.63671875 C41.54399751 265.09975238 46.802338 269.73724894 52.09033203 274.34033203 C59.13272391 280.4607846 66.19002801 286.56030337 73.4375 292.4375 C78.48854068 296.53915271 83.40128396 300.78591011 88.30786133 305.05786133 C93.96399021 309.98000517 99.67759591 314.83064755 105.41162109 319.66162109 C108.08908953 321.91767427 110.76372957 324.17706606 113.4375 326.4375 C113.96988281 326.88738281 114.50226563 327.33726562 115.05078125 327.80078125 C119.09344762 331.22149895 123.11071961 334.67105537 127.125 338.125 C131.18628745 341.61815106 135.27518587 345.06448396 139.4375 348.4375 C144.48933717 352.53979949 149.4030598 356.78701978 154.31005859 361.06005859 C158.89096638 365.04703759 163.50741507 368.98811681 168.15136719 372.90136719 C172.16384184 376.28481948 176.14710388 379.70100184 180.125 383.125 C184.18620876 386.61823856 188.27518971 390.06448707 192.4375 393.4375 C197.48933717 397.53979949 202.4030598 401.78701978 207.31005859 406.06005859 C211.89096638 410.04703759 216.50741507 413.98811681 221.15136719 417.90136719 C225.16384184 421.28481948 229.14710388 424.70100184 233.125 428.125 C237.18620876 431.61823856 241.27518971 435.06448707 245.4375 438.4375 C250.48854068 442.53915271 255.40128396 446.78591011 260.30786133 451.05786133 C265.96399021 455.98000517 271.67759591 460.83064755 277.41162109 465.66162109 C280.08908953 467.91767427 282.76372957 470.17706606 285.4375 472.4375 C285.96988281 472.88738281 286.50226562 473.33726562 287.05078125 473.80078125 C290.49322116 476.71361502 293.91879089 479.64535354 297.33691406 482.58666992 C308.30726871 492.26385545 308.30726871 492.26385545 320 501 C324.54953273 496.0417622 329.01590051 491.04424445 333.25 485.8125 C337.41084769 480.67305572 341.71734489 475.67673848 346.05932617 470.69091797 C350.0464122 466.10956654 353.98785505 461.49289557 357.90136719 456.84863281 C361.28481948 452.83615816 364.70100184 448.85289612 368.125 444.875 C371.61823856 440.81379124 375.06448707 436.72481029 378.4375 432.5625 C382.53979949 427.51066283 386.78701978 422.5969402 391.06005859 417.68994141 C395.04703759 413.10903362 398.98811681 408.49258493 402.90136719 403.84863281 C406.28482022 399.83615729 409.70108021 395.85296439 413.125 391.875 C417.52178473 386.76142496 421.83338966 381.58996854 426.0859375 376.35546875 C428.36619504 373.5493559 430.67791413 370.77152185 433 368 C436.44779086 369.50006391 438.82360533 371.50409262 441.5625 374.0625 C445.02560159 377.23785117 448.53195256 380.29828184 452.1875 383.25 C456.70940939 386.90846134 461.11778899 390.67692716 465.5 394.5 C469.78206292 398.23415168 474.08331835 401.92459104 478.5 405.5 C483.53348541 409.57757127 488.42333309 413.80505915 493.30810547 418.05810547 C498.96419371 422.98012092 504.67768348 427.83072133 510.41162109 432.66162109 C513.08908953 434.91767427 515.76372957 437.17706606 518.4375 439.4375 C518.96988281 439.88738281 519.50226562 440.33726562 520.05078125 440.80078125 C524.09344757 444.2214989 528.11072581 447.67104816 532.125 451.125 C537.19032095 455.48186005 542.32433237 459.74173576 547.51171875 463.953125 C551.07952273 466.88802184 554.55120297 469.92671669 558 473 C553.88765821 482.17368553 545.37156514 489.91221336 538.79956055 497.45043945 C535.63668139 501.08551402 532.53222451 504.7543109 529.5 508.5 C524.37137869 514.82873745 519.00725329 520.94705834 513.65966797 527.09033203 C507.5392154 534.13272391 501.43969663 541.19002801 495.5625 548.4375 C491.46084729 553.48854068 487.21408989 558.40128396 482.94213867 563.30786133 C478.01999483 568.96399021 473.16935245 574.67759591 468.33837891 580.41162109 C466.08232573 583.08908953 463.82293394 585.76372957 461.5625 588.4375 C461.11261719 588.96988281 460.66273438 589.50226562 460.19921875 590.05078125 C456.77850105 594.09344762 453.32894463 598.11071961 449.875 602.125 C446.38184894 606.18628745 442.93551604 610.27518587 439.5625 614.4375 C435.46020051 619.48933717 431.21298022 624.4030598 426.93994141 629.31005859 C422.95296241 633.89096638 419.01188319 638.50741507 415.09863281 643.15136719 C411.71518052 647.16384184 408.29899816 651.14710388 404.875 655.125 C401.38176144 659.18620876 397.93551293 663.27518971 394.5625 667.4375 C390.46020051 672.48933717 386.21298022 677.4030598 381.93994141 682.31005859 C377.95296241 686.89096638 374.01188319 691.50741507 370.09863281 696.15136719 C366.71518052 700.16384184 363.29899816 704.14710388 359.875 708.125 C356.38176144 712.18620876 352.93551293 716.27518971 349.5625 720.4375 C345.44863386 725.50530611 341.18402436 730.42962148 336.89599609 735.34960938 C331.84012189 741.15931188 326.90093647 747.0591357 322 753 C312.82631447 748.88765821 305.08778664 740.37156514 297.54956055 733.79956055 C293.91448598 730.63668139 290.2456891 727.53222451 286.5 724.5 C281.46571728 720.42178284 276.57489292 716.19382942 271.68969727 711.93969727 C267.10883911 707.95283667 262.49249713 704.0118092 257.84863281 700.09863281 C253.83615816 696.71518052 249.85289612 693.29899816 245.875 689.875 C241.81379124 686.38176144 237.72481029 682.93551293 233.5625 679.5625 C228.51145932 675.46084729 223.59871604 671.21408989 218.69213867 666.94213867 C213.03600979 662.01999483 207.32240409 657.16935245 201.58837891 652.33837891 C198.91091047 650.08232573 196.23627043 647.82293394 193.5625 645.5625 C193.03011719 645.11261719 192.49773437 644.66273438 191.94921875 644.19921875 C187.90655238 640.77850105 183.88928039 637.32894463 179.875 633.875 C175.81371255 630.38184894 171.72481413 626.93551604 167.5625 623.5625 C162.51066283 619.46020051 157.5969402 615.21298022 152.68994141 610.93994141 C148.10903362 606.95296241 143.49258493 603.01188319 138.84863281 599.09863281 C134.83615816 595.71518052 130.85289612 592.29899816 126.875 588.875 C122.81379124 585.38176144 118.72481029 581.93551293 114.5625 578.5625 C109.51066283 574.46020051 104.5969402 570.21298022 99.68994141 565.93994141 C95.10903362 561.95296241 90.49258493 558.01188319 85.84863281 554.09863281 C81.83615816 550.71518052 77.85289612 547.29899816 73.875 543.875 C69.81379124 540.38176144 65.72481029 536.93551293 61.5625 533.5625 C56.51145932 529.46084729 51.59871604 525.21408989 46.69213867 520.94213867 C41.03600979 516.01999483 35.32240409 511.16935245 29.58837891 506.33837891 C26.91091047 504.08232573 24.23627043 501.82293394 21.5625 499.5625 C21.03011719 499.11261719 20.49773437 498.66273438 19.94921875 498.19921875 C15.90655238 494.77850105 11.88928039 491.32894463 7.875 487.875 C3.81371255 484.38184894 -0.27518587 480.93551604 -4.4375 477.5625 C-9.48933717 473.46020051 -14.4030598 469.21298022 -19.31005859 464.93994141 C-23.89096638 460.95296241 -28.50741507 457.01188319 -33.15136719 453.09863281 C-37.16384184 449.71518052 -41.14710388 446.29899816 -45.125 442.875 C-49.18620876 439.38176144 -53.27518971 435.93551293 -57.4375 432.5625 C-62.48933717 428.46020051 -67.4030598 424.21298022 -72.31005859 419.93994141 C-76.89096638 415.95296241 -81.50741507 412.01188319 -86.15136719 408.09863281 C-90.16384184 404.71518052 -94.14710388 401.29899816 -98.125 397.875 C-102.18620876 394.38176144 -106.27518971 390.93551293 -110.4375 387.5625 C-115.48854068 383.46084729 -120.40128396 379.21408989 -125.30786133 374.94213867 C-130.96399021 370.01999483 -136.67759591 365.16935245 -142.41162109 360.33837891 C-145.08908953 358.08232573 -147.76372957 355.82293394 -150.4375 353.5625 C-150.96988281 353.11261719 -151.50226563 352.66273438 -152.05078125 352.19921875 C-156.09344762 348.77850105 -160.11071961 345.32894463 -164.125 341.875 C-168.18628745 338.38184894 -172.27518587 334.93551604 -176.4375 331.5625 C-181.48933717 327.46020051 -186.4030598 323.21298022 -191.31005859 318.93994141 C-195.89096638 314.95296241 -200.50741507 311.01188319 -205.15136719 307.09863281 C-209.75551848 303.21625906 -214.32152331 299.29054244 -218.8840332 295.359375 C-223.47415456 291.41778044 -228.1529013 287.60339053 -232.890625 283.83984375 C-235 282 -235 282 -237 279 C-231.45235047 272.10485937 -225.75389693 265.36633999 -219.94287109 258.69335938 C-215.95496769 254.11126647 -212.01285065 249.49373304 -208.09863281 244.84863281 C-204.71518052 240.83615816 -201.29899816 236.85289612 -197.875 232.875 C-194.38176144 228.81379124 -190.93551293 224.72481029 -187.5625 220.5625 C-183.46020051 215.51066283 -179.21298022 210.5969402 -174.93994141 205.68994141 C-170.95296241 201.10903362 -167.01188319 196.49258493 -163.09863281 191.84863281 C-159.71518052 187.83615816 -156.29899816 183.85289612 -152.875 179.875 C-149.38176144 175.81379124 -145.93551293 171.72481029 -142.5625 167.5625 C-138.46084729 162.51145932 -134.21408989 157.59871604 -129.94213867 152.69213867 C-125.01999483 147.03600979 -120.16935245 141.32240409 -115.33837891 135.58837891 C-113.08232573 132.91091047 -110.82293394 130.23627043 -108.5625 127.5625 C-108.11261719 127.03011719 -107.66273438 126.49773437 -107.19921875 125.94921875 C-103.77850105 121.90655238 -100.32894463 117.88928039 -96.875 113.875 C-93.38184894 109.81371255 -89.93551604 105.72481413 -86.5625 101.5625 C-82.46020051 96.51066283 -78.21298022 91.5969402 -73.93994141 86.68994141 C-69.95296241 82.10903362 -66.01188319 77.49258493 -62.09863281 72.84863281 C-58.71518052 68.83615816 -55.29899816 64.85289612 -51.875 60.875 C-48.38176144 56.81379124 -44.93551293 52.72481029 -41.5625 48.5625 C-37.46020051 43.51066283 -33.21298022 38.5969402 -28.93994141 33.68994141 C-25.40779198 29.63161784 -21.90545353 25.55080103 -18.4375 21.4375 C-14.43573084 16.6918691 -10.41416241 11.96386217 -6.375 7.25 C-5.85349365 6.6408374 -5.3319873 6.0316748 -4.79467773 5.40405273 C-1.12429908 1.12429908 -1.12429908 1.12429908 0 0 Z " fill="#34A42F" transform="translate(266,335)"/>
<path d="M0 0 C4.52663556 2.46907394 8.16557585 5.60181286 12 9 C13.3418834 10.17642548 14.68434106 11.35219622 16.02734375 12.52734375 C16.69620605 13.11370605 17.36506836 13.70006836 18.05419922 14.30419922 C20.86500492 16.75386752 23.71008503 19.16153371 26.5625 21.5625 C31.10616394 25.39058229 35.62208226 29.24908631 40.125 33.125 C44.18620876 36.61823856 48.27518971 40.06448707 52.4375 43.4375 C57.48933717 47.53979949 62.4030598 51.78701978 67.31005859 56.06005859 C71.89096638 60.04703759 76.50741507 63.98811681 81.15136719 67.90136719 C85.16384184 71.28481948 89.14710388 74.70100184 93.125 78.125 C97.18620876 81.61823856 101.27518971 85.06448707 105.4375 88.4375 C110.48933717 92.53979949 115.4030598 96.78701978 120.31005859 101.06005859 C124.89096638 105.04703759 129.50741507 108.98811681 134.15136719 112.90136719 C138.16384184 116.28481948 142.14710388 119.70100184 146.125 123.125 C150.18620876 126.61823856 154.27518971 130.06448707 158.4375 133.4375 C163.48854068 137.53915271 168.40128396 141.78591011 173.30786133 146.05786133 C178.96399021 150.98000517 184.67759591 155.83064755 190.41162109 160.66162109 C193.08908953 162.91767427 195.76372957 165.17706606 198.4375 167.4375 C198.96988281 167.88738281 199.50226563 168.33726562 200.05078125 168.80078125 C204.09344762 172.22149895 208.11071961 175.67105537 212.125 179.125 C216.18628745 182.61815106 220.27518587 186.06448396 224.4375 189.4375 C229.48933717 193.53979949 234.4030598 197.78701978 239.31005859 202.06005859 C243.89096638 206.04703759 248.50741507 209.98811681 253.15136719 213.90136719 C257.16384184 217.28481948 261.14710388 220.70100184 265.125 224.125 C269.18620876 227.61823856 273.27518971 231.06448707 277.4375 234.4375 C282.48933717 238.53979949 287.4030598 242.78701978 292.31005859 247.06005859 C296.89096638 251.04703759 301.50741507 254.98811681 306.15136719 258.90136719 C310.16384184 262.28481948 314.14710388 265.70100184 318.125 269.125 C322.18620876 272.61823856 326.27518971 276.06448707 330.4375 279.4375 C335.48854068 283.53915271 340.40128396 287.78591011 345.30786133 292.05786133 C350.96399021 296.98000517 356.67759591 301.83064755 362.41162109 306.66162109 C365.08908953 308.91767427 367.76372957 311.17706606 370.4375 313.4375 C370.96988281 313.88738281 371.50226562 314.33726562 372.05078125 314.80078125 C376.09344762 318.22149895 380.11071961 321.67105537 384.125 325.125 C388.18628745 328.61815106 392.27518587 332.06448396 396.4375 335.4375 C401.48933717 339.53979949 406.4030598 343.78701978 411.31005859 348.06005859 C415.89096638 352.04703759 420.50741507 355.98811681 425.15136719 359.90136719 C429.16384184 363.28481948 433.14710388 366.70100184 437.125 370.125 C441.18620876 373.61823856 445.27518971 377.06448707 449.4375 380.4375 C454.48933717 384.53979949 459.4030598 388.78701978 464.31005859 393.06005859 C468.89096638 397.04703759 473.50741507 400.98811681 478.15136719 404.90136719 C482.16384184 408.28481948 486.14710388 411.70100184 490.125 415.125 C494.18620876 418.61823856 498.27518971 422.06448707 502.4375 425.4375 C507.48854068 429.53915271 512.40128396 433.78591011 517.30786133 438.05786133 C522.95781093 442.97462776 528.66574526 447.81900625 534.39404297 452.64404297 C536.04875505 454.04116533 537.69875874 455.44367766 539.34765625 456.84765625 C545.81071264 462.34618961 552.33327816 467.74788731 559 473 C556.54184781 477.49952425 553.44011154 481.12304275 550.0625 484.9375 C548.89159729 486.27445082 547.7210321 487.61169731 546.55078125 488.94921875 C545.95861816 489.62388184 545.36645508 490.29854492 544.75634766 490.99365234 C542.06915947 494.06333715 539.40615192 497.15344983 536.75 500.25 C536.25113281 500.83136719 535.75226562 501.41273438 535.23828125 502.01171875 C532.29837768 505.44938377 529.41175673 508.92393569 526.5625 512.4375 C522.46020051 517.48933717 518.21298022 522.4030598 513.93994141 527.31005859 C509.95296241 531.89096638 506.01188319 536.50741507 502.09863281 541.15136719 C498.71518052 545.16384184 495.29899816 549.14710388 491.875 553.125 C488.38176144 557.18620876 484.93551293 561.27518971 481.5625 565.4375 C477.46084729 570.48854068 473.21408989 575.40128396 468.94213867 580.30786133 C464.01999483 585.96399021 459.16935245 591.67759591 454.33837891 597.41162109 C452.08232573 600.08908953 449.82293394 602.76372957 447.5625 605.4375 C447.11261719 605.96988281 446.66273438 606.50226562 446.19921875 607.05078125 C442.77850105 611.09344762 439.32894463 615.11071961 435.875 619.125 C432.38184894 623.18628745 428.93551604 627.27518587 425.5625 631.4375 C421.46020051 636.48933717 417.21298022 641.4030598 412.93994141 646.31005859 C408.95296241 650.89096638 405.01188319 655.50741507 401.09863281 660.15136719 C397.71518052 664.16384184 394.29899816 668.14710388 390.875 672.125 C387.38176144 676.18620876 383.93551293 680.27518971 380.5625 684.4375 C376.46020051 689.48933717 372.21298022 694.4030598 367.93994141 699.31005859 C363.95296241 703.89096638 360.01188319 708.50741507 356.09863281 713.15136719 C352.71518136 717.16384085 349.29909223 721.14718561 345.875 725.125 C342.293689 729.28680137 338.76841707 733.4826937 335.3125 737.75 C331.05391393 742.99913631 326.56911981 748.02041553 322 753 C319.21176763 751.71076019 317.01003398 750.31380469 314.71484375 748.27734375 C313.80412109 747.47683594 313.80412109 747.47683594 312.875 746.66015625 C311.9159375 745.80744141 311.9159375 745.80744141 310.9375 744.9375 C309.58308686 743.74749539 308.22761261 742.55869743 306.87109375 741.37109375 C306.20835449 740.79085449 305.54561523 740.21061523 304.86279297 739.61279297 C302.4494934 737.52337528 299.98339328 735.50538675 297.5 733.5 C291.17126255 728.37137869 285.05294166 723.00725329 278.90966797 717.65966797 C271.86727609 711.5392154 264.80997199 705.43969663 257.5625 699.5625 C252.51145932 695.46084729 247.59871604 691.21408989 242.69213867 686.94213867 C237.03600979 682.01999483 231.32240409 677.16935245 225.58837891 672.33837891 C222.9109106 670.08232584 220.23621064 667.82300449 217.5625 665.5625 C217.03809326 665.11914307 216.51368652 664.67578613 215.97338867 664.21899414 C209.62274157 658.84329058 203.31126838 653.42182426 197 648 C200.0230846 643.22015922 203.44061791 639.04087395 207.1875 634.8125 C211.03089393 630.42983254 214.83548825 626.03474831 218.5 621.5 C222.57821716 616.46571728 226.80617058 611.57489292 231.06030273 606.68969727 C235.04716333 602.10883911 238.9881908 597.49249713 242.90136719 592.84863281 C246.28481948 588.83615816 249.70100184 584.85289612 253.125 580.875 C256.61823856 576.81379124 260.06448707 572.72481029 263.4375 568.5625 C267.53979949 563.51066283 271.78701978 558.5969402 276.06005859 553.68994141 C279.59220763 549.63161829 283.09456835 545.55081896 286.5625 541.4375 C291.85941121 535.15536525 297.20338818 528.91439398 302.55712891 522.68066406 C305.03992675 519.78868769 307.51988832 516.89427999 310 514 C303.12869796 507.54381637 296.21803185 501.24466692 288.8671875 495.33203125 C285.59378268 492.66960254 282.38635629 489.93863992 279.1875 487.1875 C278.6006543 486.68307373 278.01380859 486.17864746 277.40917969 485.65893555 C275.00094245 483.58699847 272.59476104 481.51268081 270.18847656 479.43847656 C264.36164087 474.41838502 258.53765352 469.40626351 252.5625 464.5625 C247.51066283 460.46020051 242.5969402 456.21298022 237.68994141 451.93994141 C233.10903362 447.95296241 228.49258493 444.01188319 223.84863281 440.09863281 C219.83615816 436.71518052 215.85289612 433.29899816 211.875 429.875 C207.81379124 426.38176144 203.72481029 422.93551293 199.5625 419.5625 C194.51066283 415.46020051 189.5969402 411.21298022 184.68994141 406.93994141 C180.10903362 402.95296241 175.49258493 399.01188319 170.84863281 395.09863281 C166.83615816 391.71518052 162.85289612 388.29899816 158.875 384.875 C154.81379124 381.38176144 150.72481029 377.93551293 146.5625 374.5625 C141.51145932 370.46084729 136.59871604 366.21408989 131.69213867 361.94213867 C126.03600979 357.01999483 120.32240409 352.16935245 114.58837891 347.33837891 C111.91091047 345.08232573 109.23627043 342.82293394 106.5625 340.5625 C106.03011719 340.11261719 105.49773437 339.66273438 104.94921875 339.19921875 C100.90655238 335.77850105 96.88928039 332.32894463 92.875 328.875 C88.81371255 325.38184894 84.72481413 321.93551604 80.5625 318.5625 C75.51066283 314.46020051 70.5969402 310.21298022 65.68994141 305.93994141 C61.10903362 301.95296241 56.49258493 298.01188319 51.84863281 294.09863281 C47.83615816 290.71518052 43.85289612 287.29899816 39.875 283.875 C35.81379124 280.38176144 31.72481029 276.93551293 27.5625 273.5625 C22.31123012 269.30365761 17.21041659 264.88255113 12.12524414 260.42797852 C9.15814453 257.83565386 6.20611922 255.29812054 3 253 C-1.10401139 254.55209712 -3.37821871 257.50354129 -6.0625 260.8125 C-7.04410859 261.99753025 -8.025884 263.18242232 -9.0078125 264.3671875 C-9.50571289 264.97272461 -10.00361328 265.57826172 -10.51660156 266.20214844 C-12.7988819 268.96823014 -15.11793057 271.70268603 -17.4375 274.4375 C-17.88665771 274.96883545 -18.33581543 275.5001709 -18.79858398 276.04760742 C-22.21942336 280.09185096 -25.67022062 284.10974944 -29.125 288.125 C-32.61815106 292.18628745 -36.06448396 296.27518587 -39.4375 300.4375 C-43.53979949 305.48933717 -47.78701978 310.4030598 -52.06005859 315.31005859 C-56.04703759 319.89096638 -59.98811681 324.50741507 -63.90136719 329.15136719 C-67.28481948 333.16384184 -70.70100184 337.14710388 -74.125 341.125 C-77.61823856 345.18620876 -81.06448707 349.27518971 -84.4375 353.4375 C-88.57144457 358.53178015 -92.8630397 363.476224 -97.17431641 368.41992188 C-101.9011862 373.85323418 -106.48522487 379.38861282 -111 385 C-115.29445018 383.59160505 -117.87046479 381.54145224 -121.125 378.4375 C-124.73356545 375.05401242 -128.39705267 371.79286054 -132.25 368.6875 C-136.68268586 365.10604116 -141.01412219 361.42768264 -145.3125 357.6875 C-146.26286133 356.86076782 -146.26286133 356.86076782 -147.23242188 356.01733398 C-148.51848455 354.89821841 -149.80445448 353.77899624 -151.09033203 352.65966797 C-158.13272391 346.5392154 -165.19002801 340.43969663 -172.4375 334.5625 C-177.48854068 330.46084729 -182.40128396 326.21408989 -187.30786133 321.94213867 C-192.96399021 317.01999483 -198.67759591 312.16935245 -204.41162109 307.33837891 C-207.08908962 305.08232565 -209.76368234 302.8228782 -212.4375 300.5625 C-212.96408203 300.11769287 -213.49066406 299.67288574 -214.03320312 299.21459961 C-216.97479033 296.72628425 -219.90491666 294.22537288 -222.82421875 291.7109375 C-223.45851807 291.16493896 -224.09281738 290.61894043 -224.74633789 290.05639648 C-225.97209073 289.00013046 -227.19659748 287.94241618 -228.41967773 286.88305664 C-230.87981641 284.76288778 -233.29373073 282.80417951 -236 281 C-235.1248387 276.4732404 -232.49793374 273.78958149 -229.5 270.4375 C-228.39350097 269.17538167 -227.28804035 267.91235225 -226.18359375 266.6484375 C-225.63815918 266.02678711 -225.09272461 265.40513672 -224.53076172 264.76464844 C-222.48615736 262.40764679 -220.52091201 259.99136852 -218.5625 257.5625 C-213.40813208 251.21723119 -208.02637235 245.07490552 -202.65966797 238.90966797 C-196.5392154 231.86727609 -190.43969663 224.80997199 -184.5625 217.5625 C-180.46084729 212.51145932 -176.21408989 207.59871604 -171.94213867 202.69213867 C-167.01999483 197.03600979 -162.16935245 191.32240409 -157.33837891 185.58837891 C-155.08232573 182.91091047 -152.82293394 180.23627043 -150.5625 177.5625 C-150.11261719 177.03011719 -149.66273438 176.49773437 -149.19921875 175.94921875 C-145.77850105 171.90655238 -142.32894463 167.88928039 -138.875 163.875 C-135.38184894 159.81371255 -131.93551604 155.72481413 -128.5625 151.5625 C-124.46020051 146.51066283 -120.21298022 141.5969402 -115.93994141 136.68994141 C-111.95296241 132.10903362 -108.01188319 127.49258493 -104.09863281 122.84863281 C-100.71518052 118.83615816 -97.29899816 114.85289612 -93.875 110.875 C-90.38176144 106.81379124 -86.93551293 102.72481029 -83.5625 98.5625 C-79.46020051 93.51066283 -75.21298022 88.5969402 -70.93994141 83.68994141 C-66.95296241 79.10903362 -63.01188319 74.49258493 -59.09863281 69.84863281 C-55.71518052 65.83615816 -52.29899816 61.85289612 -48.875 57.875 C-45.38176144 53.81379124 -41.93551293 49.72481029 -38.5625 45.5625 C-34.46149407 40.51225581 -30.21519865 35.60049258 -25.94433594 30.69433594 C-17.14938572 20.5865535 -8.56074489 10.30631977 0 0 Z " fill="#34A42F" transform="translate(527,27)"/>
<path d="M0 0 C36.96 0 73.92 0 112 0 C112.33 13.4475 112.66 26.895 113 40.75 C113.14566406 44.93268555 113.29132813 49.11537109 113.44140625 53.42480469 C113.89746765 76.05383478 111.70144786 91.48355471 98.13378906 109.98956299 C94.36245007 115.31032252 91.20071707 120.9827005 87.9375 126.625 C86.62873626 128.83717245 85.31051584 131.0434968 83.9921875 133.25 C79.1142177 141.46603622 74.35324127 149.74878157 69.60717773 158.04150391 C69.01622314 159.07194824 68.42526855 160.10239258 67.81640625 161.1640625 C67.29506104 162.07623535 66.77371582 162.9884082 66.23657227 163.92822266 C65 166 65 166 64 167 C62.64905018 167.09268999 61.29332909 167.11747326 59.93920898 167.11352539 C59.07839218 167.11344986 58.21757538 167.11337433 57.33067322 167.11329651 C56.39526199 167.10813522 55.45985077 167.10297394 54.49609375 167.09765625 C53.54307877 167.0962413 52.59006378 167.09482635 51.60816956 167.09336853 C48.55124835 167.08775152 45.49439923 167.07519616 42.4375 167.0625 C40.37044376 167.05748719 38.30338638 167.05292391 36.23632812 167.04882812 C31.15752412 167.03777656 26.0787743 167.02050055 21 167 C23.39627604 157.5745842 26.45071943 148.38860148 29.54296875 139.17578125 C30.07703086 137.57733322 30.61082448 135.97879547 31.1443634 134.38017273 C32.53740242 130.20862783 33.93404316 126.03829782 35.33148193 121.8682251 C37.01383262 116.84540368 38.69162737 111.82105878 40.37020111 106.79697418 C42.91001176 99.196821 45.45553964 91.59860487 48 84 C32.16 84 16.32 84 0 84 C0 56.28 0 28.56 0 0 Z " fill="#34A42F" transform="translate(611,500)"/>
<path d="M0 0 C36.96 0 73.92 0 112 0 C112.33 13.4475 112.66 26.895 113 40.75 C113.14566406 44.93268555 113.29132813 49.11537109 113.44140625 53.42480469 C113.89746765 76.05383478 111.70144786 91.48355471 98.13378906 109.98956299 C94.36245007 115.31032252 91.20071707 120.9827005 87.9375 126.625 C86.62873626 128.83717245 85.31051584 131.0434968 83.9921875 133.25 C79.1142177 141.46603622 74.35324127 149.74878157 69.60717773 158.04150391 C69.01622314 159.07194824 68.42526855 160.10239258 67.81640625 161.1640625 C67.29506104 162.07623535 66.77371582 162.9884082 66.23657227 163.92822266 C65 166 65 166 64 167 C62.64905018 167.09268999 61.29332909 167.11747326 59.93920898 167.11352539 C59.07839218 167.11344986 58.21757538 167.11337433 57.33067322 167.11329651 C56.39526199 167.10813522 55.45985077 167.10297394 54.49609375 167.09765625 C53.54307877 167.0962413 52.59006378 167.09482635 51.60816956 167.09336853 C48.55124835 167.08775152 45.49439923 167.07519616 42.4375 167.0625 C40.37044376 167.05748719 38.30338638 167.05292391 36.23632812 167.04882812 C31.15752412 167.03777656 26.0787743 167.02050055 21 167 C23.39627604 157.5745842 26.45071943 148.38860148 29.54296875 139.17578125 C30.07703086 137.57733322 30.61082448 135.97879547 31.1443634 134.38017273 C32.53740242 130.20862783 33.93404316 126.03829782 35.33148193 121.8682251 C37.01383262 116.84540368 38.69162737 111.82105878 40.37020111 106.79697418 C42.91001176 99.196821 45.45553964 91.59860487 48 84 C32.16 84 16.32 84 0 84 C0 56.28 0 28.56 0 0 Z " fill="#34A42F" transform="translate(395,500)"/>
</svg>
