<?xml version="1.0" encoding="utf-8"?>
<svg xmlns="http://www.w3.org/2000/svg" viewBox="970 40 80 80" width="80px" height="80px" xmlns:bx="https://boxy-svg.com"><defs><linearGradient id="Gradient_19" gradientUnits="userSpaceOnUse" x1="-180" y1="-40" x2="-180" y2="40" spreadMethod="pad"><stop offset="0" stop-color="#71CF93"/><stop offset="1" stop-color="#59B15C"/></linearGradient><linearGradient id="Gradient_20" gradientUnits="userSpaceOnUse" x1="-180.25" y1="-40.25" x2="-180.25" y2="3.25" spreadMethod="pad"><stop offset="0" stop-color="#85DFAF"/><stop offset="1" stop-color="#69C581"/></linearGradient><bx:export><bx:file format="svg" path="logo.svg"/></bx:export></defs><g id="green_body_squircle" transform="matrix(1, 0, 0, 1, 1010.0000000000001, 80.00000000000003)"><g transform="matrix( 1, 0, 0, 1, 0,0) "><g><path fill="url(#Gradient_19)" stroke="none" d=" M 19.75 -34.25 Q 12.4 -36 0 -36 -12.45 -36 -19.75 -34.25 -27.6 -32.35 -32 -28 -36.35 -23.6 -38.25 -15.75 -39.8 -9.15 -39.95 1.5 -39.95 2 -39.95 2.5 -39.8 13.15 -38.25 19.75 -36.35 27.65 -32 32 -27.6 36.4 -19.75 38.25 -12.45 40 0 40 12.4 40 19.75 38.25 27.65 36.4 32 32 36.4 27.65 38.25 19.75 39.8 13.25 40 2.75 40 2.6 40 2.5 L 40 1.25 Q 39.8 -9.25 38.25 -15.75 36.4 -23.6 32 -28 27.65 -32.35 19.75 -34.25 Z"/><path fill="url(#Gradient_20)" stroke="none" d=" M 19.75 -38.25 Q 12.4 -40 0 -40 -12.45 -40 -19.75 -38.25 -27.6 -36.35 -32 -32 -36.35 -27.6 -38.25 -19.75 -40 -12.4 -40 0 -40 0.75 -39.95 1.5 -39.8 -9.15 -38.25 -15.75 -36.35 -23.6 -32 -28 -27.6 -32.35 -19.75 -34.25 -12.45 -36 0 -36 12.4 -36 19.75 -34.25 27.65 -32.35 32 -28 36.4 -23.6 38.25 -15.75 39.8 -9.25 40 1.25 40 0.65 40 0 40 -12.4 38.25 -19.75 36.4 -27.6 32 -32 27.65 -36.35 19.75 -38.25 Z"/></g></g></g><g id="face_g" transform="matrix(1, 0, 0, 1, 1010, 80.005768)"><g transform="matrix( 1, 0, 0, 1, 0,0) "><g><path fill="#FFFFFF" stroke="none" d=" M -7.95 -6.3 Q -10.85 -9.25 -15 -9.25 -19.15 -9.25 -22.05 -6.3 -25 -3.4 -25 0.75 L -5 0.75 Q -5 -3.4 -7.95 -6.3 Z"/></g></g><g transform="matrix( 1, 0, 0, 1, 0,0) "><g><path fill="#3D465D" stroke="none" d=" M -10.75 -3.5 Q -12.5 -5.25 -15 -5.25 -17.45 -5.25 -19.2 -3.5 -21 -1.75 -21 0.75 L -9 0.75 Q -9 -1.75 -10.75 -3.5 Z"/></g></g><g transform="matrix( 1, 0, 0, 1, 0,0) "><g><path fill="#FFFFFF" stroke="none" d=" M 22.05 -6.3 Q 19.15 -9.25 15 -9.25 10.85 -9.25 7.95 -6.3 5 -3.4 5 0.75 L 25 0.75 Q 25 -3.4 22.05 -6.3 Z"/></g></g><g transform="matrix( 1, 0, 0, 1, 0,0) "><g><path fill="#3D465D" stroke="none" d=" M 19.25 -3.5 Q 17.5 -5.25 15 -5.25 12.55 -5.25 10.8 -3.5 9 -1.75 9 0.75 L 21 0.75 Q 21 -1.75 19.25 -3.5 Z"/></g></g><g transform="matrix( 1, 0, 0, 1, 0,0) "><g><path fill="#3D465D" stroke="none" d=" M -26.85 -8.85 Q -26.5 -8.15 -25.65 -7.95 L -6.35 -2.75 Q -5.55 -2.55 -4.8 -2.95 -4.1 -3.35 -3.9 -4.2 L -2.85 -8.05 Q -2.65 -8.9 -3.05 -9.55 -3.5 -10.3 -4.3 -10.5 L -23.6 -15.7 Q -24.45 -15.9 -25.1 -15.45 -25.85 -15.1 -26.05 -14.25 L -27.1 -10.4 Q -27.3 -9.55 -26.85 -8.85 Z"/></g></g><g transform="matrix( 1, 0, 0, 1, 0,0) "><g><path fill="#3D465D" stroke="none" d=" M 4.8 -2.95 Q 5.55 -2.55 6.35 -2.75 L 25.65 -7.95 Q 26.5 -8.15 26.85 -8.85 27.3 -9.55 27.1 -10.4 L 26.05 -14.25 Q 25.85 -15.1 25.1 -15.45 24.45 -15.9 23.6 -15.7 L 4.3 -10.5 Q 3.5 -10.3 3.05 -9.55 2.65 -8.9 2.85 -8.05 L 3.9 -4.2 Q 4.1 -3.35 4.8 -2.95 Z"/></g></g><g transform="matrix( 1, 0, 0, 1, 0,0) "><g/></g></g></svg>