<svg version="1.1" id="Layer_1" xmlns="http://www.w3.org/2000/svg" xmlns:xlink="http://www.w3.org/1999/xlink" x="0px" y="0px"
	 width="100%" viewBox="0 0 1024 1024" enable-background="new 0 0 1024 1024" xml:space="preserve">
<path fill="#000000" opacity="1.000000" stroke="none" 
	d="
M669.898376,103.619270 
	C670.248352,117.929008 670.345947,131.905136 670.398804,145.881424 
	C670.445374,158.200211 670.423401,158.200287 658.420837,158.426895 
	C651.525879,158.557098 651.151855,158.931015 651.132568,165.902405 
	C651.119690,170.568893 650.883606,175.253372 651.210876,179.897141 
	C651.559814,184.848572 649.405640,186.505173 644.766479,186.096115 
	C642.285095,185.877319 639.748291,186.248093 637.274658,185.988846 
	C632.796021,185.519470 631.094543,187.038055 631.201172,191.813675 
	C631.502563,205.306747 631.311890,218.810806 631.316101,232.310532 
	C631.318604,240.319504 631.319458,240.319168 623.049072,240.323257 
	C620.382507,240.324570 617.715271,240.366821 615.049561,240.319473 
	C612.511902,240.274414 611.656250,241.334045 611.658081,243.963409 
	C611.668762,259.121796 611.346313,274.281372 611.461121,289.438110 
	C611.494202,293.802612 610.110962,295.559631 605.737793,295.187622 
	C602.925781,294.948425 600.059692,295.354218 597.245789,295.126495 
	C593.327271,294.809418 591.955444,296.362335 592.010986,300.285034 
	C592.202026,313.782257 592.140137,327.283264 592.150879,340.782806 
	C592.158020,349.774750 592.139893,349.774719 583.096558,349.885254 
	C572.335510,350.016815 572.328674,350.016815 572.322815,361.055542 
	C572.316467,372.888641 572.577820,384.729614 572.209961,396.551208 
	C572.048279,401.745148 573.823059,402.975220 578.774719,402.965149 
	C645.773132,402.828674 712.771912,402.885559 779.770630,402.898376 
	C781.436768,402.898682 783.103027,402.933563 784.768982,402.965393 
	C787.229675,403.012421 788.335327,404.255371 788.330078,406.733124 
	C788.295837,422.899323 788.289612,439.065613 788.319458,455.231812 
	C788.324097,457.740662 787.152039,458.934631 784.727966,458.970764 
	C781.395569,459.020416 778.048157,459.223236 774.733276,458.989380 
	C770.470886,458.688690 768.630432,460.202026 768.880798,464.669037 
	C769.178772,469.986206 768.889832,475.333527 769.015686,480.664001 
	C769.107056,484.534271 767.831787,486.366455 763.534424,486.354523 
	C758.979370,486.341858 753.191406,484.142944 750.141724,487.504486 
	C747.371765,490.557739 749.320190,496.145691 749.278992,500.606812 
	C749.161560,513.330383 749.239014,513.331116 736.583313,513.292542 
	C729.346069,513.270569 729.341980,513.270569 729.320374,520.694397 
	C729.307312,525.194336 729.041687,529.714355 729.378113,534.188660 
	C729.733154,538.910339 728.189941,540.677734 723.254272,540.504456 
	C713.600098,540.165405 703.924988,540.403809 694.258728,540.446411 
	C693.127869,540.451355 691.998169,540.728638 690.287415,540.957214 
	C690.287415,548.207825 690.083496,555.338501 690.362793,562.450195 
	C690.534424,566.821533 688.980835,568.594910 684.611816,568.214294 
	C681.797974,567.969299 678.923889,568.355225 676.121826,568.047974 
	C671.361450,567.525940 670.027344,569.609741 670.302063,574.096008 
	C670.637634,579.575439 670.269409,585.094360 670.431946,590.589478 
	C670.531921,593.968140 669.334534,595.525696 665.817200,595.324707 
	C662.660889,595.144348 659.472839,595.467102 656.322998,595.237366 
	C652.496277,594.958191 650.835388,596.295288 651.019958,600.316223 
	C651.264221,605.638000 650.826050,610.994934 651.147949,616.308411 
	C651.445801,621.225525 649.447144,622.975830 644.736267,622.420959 
	C642.763794,622.188538 640.740906,622.382812 638.740967,622.384521 
	C631.295166,622.390930 631.292419,622.391113 631.289551,630.080750 
	C631.287659,635.080627 631.128906,640.087952 631.353394,645.077881 
	C631.523010,648.848877 629.874146,650.078857 626.333374,650.036255 
	C616.834839,649.921753 607.330078,650.139954 597.836426,649.893677 
	C593.547241,649.782410 591.757690,651.140381 591.990234,655.593445 
	C592.285461,661.245300 592.024963,666.924011 592.134399,672.588623 
	C592.199707,675.969849 590.788208,677.449463 587.350098,677.298096 
	C583.690613,677.137024 580.014648,677.367065 576.353210,677.230164 
	C573.302856,677.116150 572.231140,678.444641 572.292175,681.407410 
	C572.415588,687.404602 572.181213,693.410400 572.362061,699.404663 
	C572.470215,702.989075 571.310181,704.633972 567.510803,704.385742 
	C563.860229,704.147278 560.177795,704.443604 556.515625,704.319336 
	C553.475098,704.216187 552.291443,705.584290 552.409668,708.516052 
	C552.637878,714.174500 552.875366,719.835632 552.925293,725.497253 
	C552.978149,731.504700 552.482178,731.947266 546.315552,731.951965 
	C536.815918,731.959229 527.310547,732.068909 517.819580,731.764282 
	C514.208984,731.648315 513.130066,732.787659 513.260376,736.256226 
	C513.472900,741.914612 513.007446,747.607910 513.395813,753.247437 
	C513.739746,758.241211 511.737000,759.694458 507.064484,759.338196 
	C502.794250,759.012573 498.479645,759.269165 493.920105,759.269165 
	C493.920105,766.730774 493.748596,773.677612 493.983704,780.610657 
	C494.127502,784.852173 492.781860,786.810608 488.288544,786.409729 
	C484.981598,786.114746 481.622437,786.461731 478.295319,786.318665 
	C475.253510,786.187927 474.150543,787.501160 474.205566,790.471130 
	C474.322754,796.802063 474.158081,803.138184 474.269257,809.469299 
	C474.321381,812.437683 473.232330,813.474548 470.175812,813.577209 
	C460.512268,813.901917 450.848938,814.290894 441.208069,813.452209 
	C436.813385,813.069824 434.693420,814.134155 435.021820,819.057861 
	C435.398102,824.699707 434.962585,830.391174 435.178345,836.049744 
	C435.329498,840.014160 433.681946,841.447876 429.852783,841.226624 
	C426.364441,841.024963 422.852478,841.267578 419.356567,841.148743 
	C416.359772,841.046936 415.175812,842.315186 415.252686,845.310120 
	C415.389435,850.639893 415.305969,855.975525 415.301453,861.308716 
	C415.295502,868.310181 415.290039,868.312378 408.517548,868.321838 
	C405.517639,868.326050 402.514648,868.403809 399.518677,868.294250 
	C396.519470,868.184570 395.342926,869.508179 395.390625,872.479309 
	C395.492279,878.810730 395.306061,885.147461 395.446869,891.477356 
	C395.513916,894.489868 394.473663,895.692322 391.387482,895.495667 
	C387.901123,895.273621 384.378784,895.605347 380.894165,895.369751 
	C377.083466,895.112122 375.936066,896.796326 376.054962,900.381958 
	C376.248169,906.208740 375.982635,912.050171 376.153168,917.878357 
	C376.267212,921.776245 374.623566,923.209717 370.799438,923.154297 
	C360.801666,923.009155 350.799377,922.998596 340.801483,923.131042 
	C336.981384,923.181641 335.403412,921.836365 335.567230,917.873596 
	C335.814819,911.883972 335.847321,905.865906 335.555573,899.880249 
	C335.346954,895.600342 337.107330,894.213745 341.108002,894.564941 
	C343.422913,894.768127 345.771240,894.591858 348.104523,894.584595 
	C354.792145,894.563660 354.811554,894.563354 354.820984,888.084778 
	C354.841095,874.251709 354.819397,860.418579 354.854340,846.585571 
	C354.871674,839.732910 354.921661,839.723022 361.915222,839.711182 
	C374.692841,839.689575 374.692780,839.689514 374.693115,826.681946 
	C374.693207,823.682007 374.887421,820.666504 374.647461,817.685913 
	C374.322235,813.646545 376.157990,812.223022 379.928345,812.621765 
	C380.422516,812.674072 380.927521,812.625122 381.427490,812.621582 
	C394.386597,812.529907 394.444031,812.530334 394.545807,799.302307 
	C394.638123,787.303162 394.722168,775.300720 394.524841,763.304382 
	C394.456604,759.156494 395.911865,757.776245 400.013977,757.735657 
	C404.409851,757.692322 410.019104,759.902954 412.926422,756.535706 
	C415.680267,753.346130 413.772919,747.874390 413.823792,743.416077 
	C413.954956,731.917786 414.000885,720.414795 413.803070,708.918457 
	C413.729187,704.623474 415.235229,702.763977 419.582275,703.022827 
	C422.903503,703.220642 426.248077,702.987000 429.579041,703.071533 
	C432.533417,703.146423 433.788147,701.873535 433.735382,698.883789 
	C433.629517,692.885864 433.873993,686.878662 433.654633,680.887024 
	C433.516907,677.124939 435.108032,675.772156 438.655518,675.909180 
	C441.650818,676.024963 444.676483,675.692932 447.649200,675.975159 
	C452.133392,676.400879 453.815521,674.911865 453.721863,670.145813 
	C453.440308,655.818359 453.738159,641.480469 453.567261,627.149536 
	C453.519196,623.120667 454.731445,621.135254 458.941040,621.673889 
	C459.104797,621.694824 459.273987,621.674194 459.440643,621.671570 
	C472.856293,621.460083 472.853485,621.460144 472.843597,607.789673 
	C472.835663,596.789917 472.850128,585.790100 472.826569,574.790405 
	C472.812439,568.188843 472.788208,568.150085 466.182556,568.151062 
	C398.183899,568.161072 330.185211,568.184631 262.186554,568.204529 
	C255.686676,568.206421 249.180603,568.037231 242.689102,568.271545 
	C238.319992,568.429382 236.815750,566.666321 236.861115,562.391113 
	C237.018448,547.559692 237.018555,532.724792 236.876251,517.893188 
	C236.835632,513.662598 238.296539,511.692322 242.671967,511.962769 
	C245.826172,512.157715 249.010178,511.852631 252.167313,512.022705 
	C255.681595,512.212097 256.874298,510.656189 256.789093,507.270599 
	C256.638153,501.274902 256.846283,495.270782 256.747345,489.272797 
	C256.694275,486.056915 258.102234,484.747955 261.247040,484.824585 
	C264.911011,484.913879 268.582733,484.716095 272.245056,484.832550 
	C275.464630,484.934967 276.729462,483.541595 276.670288,480.356934 
	C276.558899,474.359344 276.781464,468.354523 276.618866,462.359375 
	C276.525574,458.920166 277.815430,457.610260 281.280243,457.663452 
	C290.777863,457.809357 300.284760,457.524933 309.776398,457.804688 
	C314.224640,457.935760 316.157043,456.764496 315.841187,451.971954 
	C315.469391,446.330536 315.866943,440.642670 315.742981,434.979065 
	C315.672058,431.738464 317.044434,430.466522 320.214233,430.580963 
	C323.709381,430.707153 327.221222,430.447205 330.710541,430.636749 
	C334.310608,430.832245 335.871735,429.561493 335.724731,425.772614 
	C335.498749,419.948120 335.871429,414.098541 335.592834,408.278595 
	C335.389099,404.022156 337.165405,402.521942 341.162933,402.897400 
	C342.484467,403.021545 343.827789,402.925629 345.160950,402.911926 
	C355.610260,402.804565 354.951447,404.202148 354.913422,393.347504 
	C354.898804,389.181091 355.029785,385.011780 354.912750,380.848907 
	C354.804291,376.992981 356.449615,375.602722 360.325409,375.692841 
	C369.486969,375.905823 378.656769,375.774780 387.823242,375.763184 
	C394.600220,375.754639 394.604462,375.740814 394.618958,368.744507 
	C394.629303,363.744598 394.838837,358.732941 394.562500,353.748505 
	C394.337494,349.690125 396.030273,348.395599 399.836365,348.646912 
	C402.988892,348.855042 406.176788,348.519226 409.330597,348.717346 
	C412.884766,348.940613 414.025269,347.354523 413.944183,343.989807 
	C413.799744,337.993683 413.998291,331.989868 413.898346,325.991852 
	C413.837982,322.369110 415.446381,320.917999 419.020233,320.950165 
	C428.352417,321.034149 437.686066,320.963531 447.019104,320.935181 
	C453.403717,320.915802 453.563446,320.760895 453.602539,314.593933 
	C453.631073,310.094177 453.611603,305.594147 453.622894,301.094238 
	C453.641144,293.817719 453.644379,293.821625 460.696411,293.822357 
	C463.362885,293.822632 466.032776,293.710968 468.694946,293.811951 
	C471.685822,293.925446 472.887482,292.596100 472.842316,289.635345 
	C472.750793,283.637085 472.933533,277.633759 472.795074,271.637329 
	C472.712311,268.052551 474.031555,266.276672 477.757965,266.679962 
	C478.416809,266.751282 479.090149,266.689301 479.756805,266.686737 
	C492.690338,266.636841 492.689850,266.636810 492.679565,253.922104 
	C492.676849,250.588837 492.861664,247.242722 492.629486,243.925674 
	C492.362000,240.104065 494.170013,238.965317 497.662109,238.996979 
	C507.161041,239.083130 516.666687,238.823349 526.158813,239.089645 
	C530.585632,239.213852 532.079712,237.672821 531.852112,233.317551 
	C531.556824,227.666824 531.878357,221.986664 531.766052,216.322495 
	C531.703308,213.157028 532.963013,211.714172 536.176392,211.805511 
	C539.673096,211.904922 543.192444,211.587372 546.670837,211.854996 
	C550.734619,212.167664 551.890808,210.430145 551.724182,206.605286 
	C551.477844,200.949600 551.814453,195.269760 551.615234,189.610321 
	C551.486389,185.948868 552.839050,184.579956 556.533264,184.648270 
	C565.863220,184.820786 575.206299,184.481415 584.528442,184.801666 
	C589.220215,184.962845 591.195251,183.686264 590.852173,178.709702 
	C590.474792,173.236481 590.899597,167.712830 590.748169,162.217377 
	C590.652039,158.728561 592.119812,157.443588 595.512329,157.603455 
	C599.170715,157.775848 602.846497,157.550323 606.509277,157.667236 
	C609.490295,157.762405 610.716858,156.528732 610.662415,153.524124 
	C610.550659,147.359695 610.808411,141.185303 610.578857,135.027481 
	C610.430481,131.046768 612.049744,129.770020 615.867004,129.831665 
	C625.530823,129.987762 635.200989,129.760162 644.864563,129.921661 
	C648.539001,129.983078 649.922241,128.693146 649.776184,124.981209 
	C649.547058,119.156944 649.824951,113.314117 649.667480,107.485115 
	C649.577271,104.146011 650.681641,102.448853 654.235291,102.701401 
	C659.357239,103.065399 664.534119,102.051697 669.898376,103.619270 
M551.709290,376.500000 
	C551.713745,370.669800 551.693176,364.839417 551.727966,359.009399 
	C551.795837,347.636932 550.696594,348.788300 561.854187,348.704926 
	C569.982361,348.644165 571.472412,347.316254 571.595154,339.073273 
	C571.751465,328.576141 571.656006,318.075195 571.659973,307.575897 
	C571.664917,294.369019 571.657837,294.200562 584.919373,293.961731 
	C589.481750,293.879547 591.061646,292.260193 590.986328,287.771301 
	C590.779419,275.442139 590.860046,263.107574 590.896484,250.775330 
	C590.906311,247.457870 590.202515,243.670654 591.539429,240.936798 
	C593.437744,237.054977 597.874512,239.889511 601.139160,239.414001 
	C610.201050,238.094055 610.644226,237.991516 610.708496,229.112579 
	C610.782104,218.946960 610.781250,208.780701 610.785217,198.614716 
	C610.790771,184.459381 610.433838,184.227936 596.248962,186.046356 
	C593.307251,186.423447 592.158142,187.689957 592.172302,190.516342 
	C592.199829,196.015381 591.911560,201.524536 592.158142,207.011322 
	C592.362366,211.555481 590.627502,213.278732 586.076111,213.188812 
	C576.414551,212.997940 566.745239,213.232376 557.080566,213.141693 
	C553.693054,213.109909 552.255005,214.386093 552.339233,217.853302 
	C552.484802,223.848969 552.263550,229.853073 552.377502,235.850189 
	C552.438232,239.047791 551.157288,240.405136 547.950806,240.287933 
	C544.456116,240.160187 540.946167,240.407455 537.454651,240.242783 
	C534.169678,240.087860 533.012207,241.526489 533.074646,244.685226 
	C533.193237,250.682358 533.005188,256.685760 533.135132,262.682404 
	C533.213257,266.286011 531.874268,267.760529 528.122253,267.613312 
	C520.965698,267.332520 513.794739,267.404083 506.629547,267.361725 
	C493.446350,267.283783 493.533600,267.294861 493.331696,280.366486 
	C493.262878,284.822021 495.208954,290.304626 492.385803,293.485229 
	C489.269928,296.995667 483.545654,294.821686 478.977264,294.935333 
	C475.230377,295.028534 474.013763,296.567657 474.109344,300.105286 
	C474.262299,305.767273 474.030670,311.439453 474.172394,317.102051 
	C474.261414,320.659546 472.949188,322.391235 469.240936,322.236328 
	C465.913849,322.097351 462.565521,322.379578 459.246002,322.169281 
	C455.606171,321.938629 454.108826,323.285522 454.243408,327.029480 
	C454.452759,332.855042 454.156250,338.698761 454.364410,344.524414 
	C454.496368,348.217834 453.091949,349.514374 449.421600,349.445099 
	C439.925842,349.265869 430.423798,349.448090 420.926025,349.336029 
	C416.703827,349.286255 414.883057,351.001495 415.062164,355.320343 
	C415.296783,360.977600 415.072266,366.652374 415.209229,372.315674 
	C415.286499,375.509460 413.863525,376.917297 410.768219,376.911713 
	C407.435425,376.905731 404.093262,377.107697 400.772156,376.919739 
	C396.791840,376.694458 394.997894,378.019104 395.251251,382.323547 
	C395.573883,387.804138 395.117676,393.328766 395.393677,398.814453 
	C395.606293,403.040100 393.880768,404.334259 389.856201,404.249268 
	C380.361115,404.048676 370.857452,404.267517 361.361328,404.094116 
	C357.552063,404.024597 355.931946,405.279083 356.105743,409.278992 
	C356.358704,415.100616 356.130646,420.941986 356.167572,426.774567 
	C356.187073,429.857452 354.888428,431.396179 351.664246,431.292084 
	C348.335022,431.184631 344.990601,431.442322 341.668121,431.260498 
	C337.803650,431.048981 336.214447,432.642914 336.325287,436.517487 
	C336.492096,442.345795 336.248444,448.186401 336.438721,454.013306 
	C336.551636,457.470581 335.097412,458.895569 331.775085,458.860748 
	C328.442810,458.825836 325.105560,459.001831 321.777710,458.883148 
	C318.370972,458.761658 316.944305,460.217224 317.020233,463.628693 
	C317.146240,469.292206 316.938690,474.963959 317.102997,480.625488 
	C317.219238,484.630646 315.725616,486.316162 311.551056,486.231110 
	C301.889160,486.034210 292.217865,486.306671 282.555420,486.123047 
	C278.732117,486.050415 277.109619,487.210083 277.299683,491.243530 
	C277.566071,496.897003 277.160492,502.581787 277.416840,508.236176 
	C277.599274,512.260193 275.968658,513.609070 272.145416,513.342041 
	C269.329193,513.145264 266.482819,513.334656 263.651489,513.410889 
	C259.871490,513.512695 257.853729,515.099182 258.111755,519.277161 
	C258.378326,523.593567 258.160278,527.939514 258.162964,532.272583 
	C258.167542,539.701477 258.170410,539.721313 265.461914,539.722656 
	C344.623596,539.737488 423.785309,539.745483 502.946991,539.756348 
	C504.946838,539.756653 506.948608,539.827576 508.946045,539.761169 
	C511.876892,539.663696 513.199768,540.994629 513.191101,543.944031 
	C513.144897,559.609436 513.135620,575.275085 513.161987,590.940552 
	C513.166931,593.868164 511.872070,595.218445 508.938416,595.175781 
	C505.272980,595.122498 501.598328,595.333435 497.941742,595.149597 
	C494.413605,594.972168 493.173828,596.491333 493.353088,599.885498 
	C493.528625,603.208679 493.369324,606.549561 493.357880,609.882629 
	C493.315796,622.157166 493.315948,622.157166 480.821228,622.285828 
	C480.487915,622.289246 480.149933,622.328613 479.822021,622.287781 
	C475.517120,621.751770 473.977264,623.517090 474.047729,627.939758 
	C474.273346,642.101868 474.148102,656.270020 474.112091,670.435730 
	C474.095734,676.859009 473.772491,677.129211 467.276794,677.190247 
	C454.268005,677.312561 454.268005,677.312500 454.282593,690.219421 
	C454.298035,703.891296 454.299774,703.994263 440.475220,704.225769 
	C436.757935,704.288025 435.109344,705.395569 434.885773,709.324036 
	C434.194122,721.477966 434.561951,733.634399 434.447968,745.787842 
	C434.324280,758.979980 434.409241,759.187256 421.329254,759.089478 
	C416.374268,759.052368 415.037659,760.954651 415.116058,765.550598 
	C415.317932,777.379456 415.152130,789.214294 415.166626,801.046753 
	C415.182465,813.957214 415.193756,813.903748 428.293549,812.661865 
	C431.032745,812.402161 432.404327,811.319519 433.020569,808.571533 
	C434.319519,802.779297 433.685913,796.943481 433.680908,791.140625 
	C433.677368,787.058289 435.101501,785.564453 439.227570,785.583069 
	C448.552795,785.625122 457.879303,785.159302 467.206360,785.110352 
	C471.135620,785.089722 473.121735,783.742554 472.908417,779.558105 
	C472.739105,776.236206 472.970825,772.894958 472.987061,769.562134 
	C473.050751,756.469666 472.246155,758.163757 484.602692,757.982300 
	C485.435822,757.970093 486.274475,757.861816 487.100525,757.926453 
	C491.149719,758.243286 492.863037,756.407898 492.768311,752.353821 
	C492.639893,746.857971 492.919250,741.352051 492.770203,735.857361 
	C492.664001,731.943726 494.327545,730.425842 498.151917,730.659668 
	C501.140411,730.842346 504.166931,730.486450 507.144653,730.741821 
	C511.084747,731.079651 512.658569,729.290344 512.658447,725.580078 
	C512.658264,720.080688 512.893677,714.572571 512.650879,709.084839 
	C512.464539,704.873169 514.178467,703.603333 518.222595,703.659302 
	C527.883423,703.792908 537.549622,703.487366 547.213257,703.508850 
	C550.699829,703.516602 551.864441,702.021912 551.760071,698.640564 
	C551.580200,692.813538 551.864502,686.972412 551.691772,681.144958 
	C551.590088,677.711853 553.049194,676.233093 556.337891,676.202454 
	C559.170288,676.176025 562.002258,676.108093 564.834412,676.056580 
	C571.003601,675.944519 571.565918,675.399841 571.637329,669.055908 
	C571.695435,663.890137 571.784180,658.719788 571.629761,653.558350 
	C571.528503,650.175476 572.789490,648.627869 576.261780,648.766541 
	C579.588928,648.899475 582.934998,648.615417 586.257446,648.796204 
	C589.775757,648.987671 591.018860,647.400024 590.960022,644.061646 
	C590.863220,638.564148 591.184692,633.051758 590.905457,627.567261 
	C590.668152,622.906921 592.536133,621.499817 597.045837,621.647156 
	C605.869263,621.935425 614.708801,621.771667 623.541321,621.724731 
	C629.606201,621.692566 630.344238,621.017578 630.559875,614.801880 
	C630.744751,609.474426 630.732544,604.136658 630.665161,598.805237 
	C630.627625,595.835449 631.905090,594.549683 634.851135,594.612732 
	C638.182129,594.684021 641.519043,594.505554 644.848694,594.600952 
	C648.417053,594.703125 650.001709,593.195435 649.930786,589.543030 
	C649.814209,583.546509 649.998047,577.544861 649.963074,571.545837 
	C649.944885,568.417725 651.375732,566.931396 654.487000,566.950439 
	C657.486450,566.968811 660.505249,566.708984 663.481567,566.965576 
	C668.139343,567.367004 670.166809,565.781433 669.825439,560.815430 
	C669.449097,555.341736 669.823975,549.820312 669.708740,544.323120 
	C669.642639,541.167236 670.910156,539.693359 674.113708,539.780640 
	C677.277649,539.866943 680.465881,539.561707 683.607666,539.837158 
	C688.057007,540.227112 689.613586,538.051331 689.608154,534.014587 
	C689.600952,528.681824 689.865906,523.337585 689.591797,518.020020 
	C689.373962,513.793640 691.076538,512.521545 695.105286,512.605347 
	C704.267090,512.795898 713.437439,512.546021 722.601440,512.676208 
	C726.832581,512.736328 728.763306,510.935486 728.738464,506.753082 
	C728.704834,501.087341 728.891052,495.417603 728.738159,489.756195 
	C728.644531,486.291290 730.116394,484.910553 733.461060,484.975891 
	C736.791870,485.040955 740.130554,484.801117 743.457886,484.918213 
	C746.697937,485.032257 747.917114,483.582642 747.897461,480.444000 
	C747.859985,474.445862 748.072693,468.446411 748.058594,462.447784 
	C748.051208,459.312195 749.411804,457.850250 752.563538,457.892761 
	C756.062073,457.939972 759.567322,457.727936 763.060547,457.863647 
	C766.443848,457.995148 767.917908,456.710480 767.785767,453.203705 
	C767.604004,448.377899 767.769348,443.539490 767.758606,438.706543 
	C767.742065,431.269012 767.732178,431.240753 760.455200,431.240479 
	C687.459778,431.237610 614.464417,431.244843 541.468994,431.248505 
	C539.802429,431.248566 538.128540,431.137482 536.470947,431.257172 
	C533.178589,431.494904 532.047363,429.895508 532.081055,426.782349 
	C532.149536,420.450653 532.139221,414.114594 531.973206,407.785278 
	C531.880981,404.270905 533.575745,403.001495 536.816650,403.032013 
	C540.149048,403.063385 543.486572,402.896027 546.814087,403.021423 
	C550.423950,403.157532 551.875305,401.702911 551.763062,397.996857 
	C551.556519,391.170288 551.706848,384.332886 551.709290,376.500000 
M630.126404,169.524292 
	C629.866150,156.770432 631.562927,158.429001 618.423401,158.368790 
	C617.925354,158.366501 617.426880,158.417969 616.929138,158.410263 
	C613.445129,158.356277 611.665649,160.174789 611.579651,163.548508 
	C611.427307,169.523972 611.412598,175.502869 611.325256,181.480118 
	C611.291504,183.793488 612.464844,184.783310 614.709106,184.742249 
	C632.493408,184.416763 629.524841,187.377731 630.125793,171.005524 
	C630.131897,170.839600 630.127014,170.673294 630.126404,169.524292 
M413.448822,815.406250 
	C408.704437,811.787781 403.548492,813.197998 398.824890,814.912720 
	C394.536530,816.469543 395.725800,820.996277 395.370361,824.507019 
	C395.270447,825.493958 395.338348,826.498230 395.334900,827.494507 
	C395.288116,841.088623 395.570374,841.294128 409.130768,839.701294 
	C412.313782,839.327393 413.915619,838.031067 413.828735,834.647522 
	C413.671082,828.509216 413.720520,822.365601 413.448822,815.406250 
M389.238464,841.008728 
	C376.052338,841.054993 376.034973,841.072571 376.056702,854.355774 
	C376.057220,854.687195 376.059021,855.018677 376.059845,855.350098 
	C376.092224,868.070740 376.301422,868.194702 389.264435,866.835632 
	C392.218842,866.525818 393.722351,865.309692 394.165802,862.349121 
	C395.056580,856.401855 394.582397,850.441528 394.583740,844.486511 
	C394.584381,841.543823 392.463104,841.099426 389.238464,841.008728 
z"/>
</svg>